<?xml version="1.0" encoding="UTF-8"?>
<svg xmlns="http://www.w3.org/2000/svg" xmlns:xlink="http://www.w3.org/1999/xlink" width="300px" height="300px" viewBox="0 0 300 300" version="1.1">
<defs>
<filter id="alpha" filterUnits="objectBoundingBox" x="0%" y="0%" width="100%" height="100%">
  <feColorMatrix type="matrix" in="SourceGraphic" values="0 0 0 0 1 0 0 0 0 1 0 0 0 0 1 0 0 0 1 0"/>
</filter>
<mask id="mask0">
  <g filter="url(#alpha)">
<rect x="0" y="0" width="300" height="300" style="fill:rgb(0%,0%,0%);fill-opacity:0.2;stroke:none;"/>
  </g>
</mask>
<clipPath id="clip1">
  <rect x="0" y="0" width="300" height="300"/>
</clipPath>
<g id="surface5" clip-path="url(#clip1)">
<path style=" stroke:none;fill-rule:nonzero;fill:rgb(13.725491%,12.156863%,12.54902%);fill-opacity:1;" d="M 28.125 18.75 L 28.125 250.953125 C 33.101562 246.488281 39.660156 243.75 46.875 243.75 L 56.25 243.75 L 56.25 9.375 L 37.5 9.375 C 32.324219 9.375 28.125 13.574219 28.125 18.75 Z M 28.125 18.75 "/>
</g>
</defs>
<g id="surface1">
<path style=" stroke:none;fill-rule:nonzero;fill:rgb(97.647059%,92.156863%,69.803923%);fill-opacity:1;" d="M 262.5 290.625 L 46.875 290.625 C 36.519531 290.625 28.125 282.230469 28.125 271.875 C 28.125 261.519531 36.519531 253.125 46.875 253.125 L 262.5 253.125 Z M 262.5 290.625 "/>
<path style=" stroke:none;fill-rule:nonzero;fill:rgb(27.058825%,66.666669%,72.156864%);fill-opacity:1;" d="M 28.125 18.75 L 28.125 250.953125 C 33.101562 246.488281 39.660156 243.75 46.875 243.75 L 56.25 243.75 L 56.25 9.375 L 37.5 9.375 C 32.324219 9.375 28.125 13.574219 28.125 18.75 Z M 28.125 18.75 "/>
<path style=" stroke:none;fill-rule:nonzero;fill:rgb(27.058825%,66.666669%,72.156864%);fill-opacity:1;" d="M 262.5 9.375 L 65.625 9.375 L 65.625 243.75 L 271.875 243.75 L 271.875 18.75 C 271.875 13.574219 267.675781 9.375 262.5 9.375 Z M 262.5 9.375 "/>
<path style=" stroke:none;fill-rule:nonzero;fill:rgb(22.352941%,25.882354%,25.098041%);fill-opacity:1;" d="M 281.25 243.75 L 281.25 18.75 C 281.25 8.386719 272.863281 0 262.5 0 L 37.5 0 C 27.136719 0 18.75 8.386719 18.75 18.75 L 18.75 271.875 C 18.75 287.40625 31.34375 300 46.875 300 L 276.5625 300 C 279.15625 300 281.25 297.90625 281.25 295.3125 C 281.25 292.71875 279.15625 290.625 276.5625 290.625 L 271.875 290.625 L 271.875 253.125 C 277.050781 253.125 281.25 248.925781 281.25 243.75 Z M 28.125 18.75 C 28.125 13.574219 32.324219 9.375 37.5 9.375 L 56.25 9.375 L 56.25 243.75 L 46.875 243.75 C 39.660156 243.75 33.101562 246.488281 28.125 250.953125 Z M 262.5 290.625 L 46.875 290.625 C 36.519531 290.625 28.125 282.230469 28.125 271.875 C 28.125 261.519531 36.519531 253.125 46.875 253.125 L 262.5 253.125 Z M 262.5 243.75 L 65.625 243.75 L 65.625 9.375 L 262.5 9.375 C 267.675781 9.375 271.875 13.574219 271.875 18.75 L 271.875 243.75 Z M 262.5 243.75 "/>
<path style=" stroke:none;fill-rule:nonzero;fill:rgb(22.352941%,25.882354%,25.098041%);fill-opacity:1;" d="M 201.5625 121.875 L 107.8125 121.875 C 105.21875 121.875 103.125 123.96875 103.125 126.5625 C 103.125 129.15625 105.21875 131.25 107.8125 131.25 L 201.5625 131.25 C 204.15625 131.25 206.25 129.15625 206.25 126.5625 C 206.25 123.96875 204.15625 121.875 201.5625 121.875 Z M 201.5625 121.875 "/>
<path style=" stroke:none;fill-rule:nonzero;fill:rgb(22.352941%,25.882354%,25.098041%);fill-opacity:1;" d="M 229.6875 93.75 L 107.8125 93.75 C 105.21875 93.75 103.125 95.84375 103.125 98.4375 C 103.125 101.03125 105.21875 103.125 107.8125 103.125 L 229.6875 103.125 C 232.28125 103.125 234.375 101.03125 234.375 98.4375 C 234.375 95.84375 232.28125 93.75 229.6875 93.75 Z M 229.6875 93.75 "/>
<path style=" stroke:none;fill-rule:nonzero;fill:rgb(22.352941%,25.882354%,25.098041%);fill-opacity:1;" d="M 107.8125 75 L 164.0625 75 C 166.65625 75 168.75 72.90625 168.75 70.3125 C 168.75 67.71875 166.65625 65.625 164.0625 65.625 L 107.8125 65.625 C 105.21875 65.625 103.125 67.71875 103.125 70.3125 C 103.125 72.90625 105.21875 75 107.8125 75 Z M 107.8125 75 "/>
<use xlink:href="#surface5" mask="url(#mask0)"/>
</g>
</svg>
